#!OML:ASF F:\VICON\USERDATA\INSTALL\rory3\rory3.ASF
:FULLY-SPECIFIED
:DEGREES
26
root -7.298301149600185 17.633410778544064 5.031405531244165 -3.188195817240043 35.7252974706212 -12.4415133104267
lfemur -0.09381428478733511 17.750489596194022 11.886983232066978
ltibia 41.01328608948378
lfoot 12.847602113821262 12.766285789122403
ltoes -32.60728668510566
rfemur -26.069492157331055 13.31408559564573 30.376384997290153
rtibia 34.04579100599577
rfoot -0.32396709882701913 31.356984546481875
rtoes 37.488887735403814
lowerback 2.5701125585565885 -9.90803736629453 -19.366984736778626
upperback -0.0657420720811972 -13.492587008741436 -4.066008002526008
thorax 1.8697415814088667 -6.7028771873196185 5.780103045055306
lowerneck -3.5477927665806774 21.95098584049458 2.2369212620396364
upperneck 14.398800234762398 32.007486761457585 -12.442989066699543
head 7.46428057334486 14.601386159589728 -1.3285972407912627
lclavicle -7.0142049554879595e-15 -5.15363597478099e-15
lhumerus 97.86339033225444 -50.783992258414514 45.61260935127635
lradius 30.38730495018872
lwrist 2.388651946204689
lhand -8.749342594258383 8.294795755913166
lfingers 7.125020000000003
lthumb -162.81200279477105 217.55501476793154
rclavicle -7.0142049554879595e-15 -5.15363597478099e-15
rhumerus 15.38810828153703 -17.272687791350528 -76.0173968648238
rradius 101.93598492646946
rwrist -18.035799571073397
rhand -59.96299119876868 26.282394491715777
rfingers 7.125020000000003
rthumb -32.11659129252039 -0.9000741365760749
27
root -7.289321281023415 17.645210111610282 5.120025176477774 -2.245877524188387 34.891897741726424 -11.457114764535007
lfemur 0.21831110603226733 17.717488664100763 11.048684118998207
ltibia 40.68318689700391
lfoot 13.521801685106666 14.032284737299772
ltoes -29.792391193853934
rfemur -26.307591159005774 13.85278564416237 29.791685459130314
rtibia 34.403490928967656
rfoot -0.3700525124253282 31.710383981585643
rtoes 35.801688379841366
lowerback 2.5081227719944534 -10.17068726776326 -19.188885568404547
upperback -0.4560327691194481 -13.870687525563264 -4.318437362915328
thorax 1.4604326755709138 -6.827986615045877 5.433663689451864
lowerneck -3.9135218615525904 22.195986170580266 1.775832971341599
upperneck 13.578000944261145 32.236286835258895 -12.57988847889371
head 7.223231208152436 14.720986730695802 -1.3023275009242241
lclavicle -7.0142051645542495e-15 -5.153636477945724e-15
lhumerus 100.4469896313817 -49.33109281168152 45.879409119136184
lradius 31.61650418664906
lwrist 2.9776213379001675
lhand -9.297232371263963 7.738165999960557
lfingers 7.125020000000003
lthumb -163.34000236802402 217.04301761706978
rclavicle -7.0142051645542495e-15 -5.153636477945724e-15
rhumerus 18.377006943011267 -18.222887308266323 -73.05139874240986
rradius 103.52198617441303
rwrist -15.489600759790001
rhand -59.477091505562385 26.46649458049597
rfingers 7.125020000000003
rthumb -31.653891384974692 -0.8082361376985965
28
root -7.275641498864569 17.649209897941702 5.206844821923304 -1.7478839955562933 33.880397722703684 -10.801510334786073
lfemur 0.906744839313891 17.944489561260493 10.719684741748907
ltibia 40.3190869830004
lfoot 14.927101059721851 14.013585177694406
ltoes -29.82488804991689
rfemur -26.14159106718164 14.804184430739884 29.48868590044655
rtibia 34.52709070298093
rfoot -0.1115218612199591 31.921985493228853
rtoes 38.238987193418126
lowerback 2.271052964259577 -10.2648870213181 -19.099185953681307
upperback -0.7226951518005897 -13.974287349949941 -4.414517431957356
thorax 1.2779629995156676 -6.848556875133982 5.269963891940597
lowerneck -3.6470129246100473 22.43668600825395 1.2793846163351676
upperneck 12.468002003847596 32.36298651267346 -12.65748862781917
head 6.763902436396324 14.862186598943225 -1.3709568963235153
lclavicle -7.0142062764089694e-15 -5.153636100572235e-15
lhumerus 103.10298777305312 -47.950791553009324 45.78930992396876
lradius 32.87230346963653
lwrist 3.0240204591524495
lhand -11.615900426166105 6.309447446910635
lfingers 7.125020000000003
lthumb -165.57300043897092 215.78802048737577
rclavicle -7.0142062764089694e-15 -5.153636100572235e-15
rhumerus 20.92970725396122 -18.82748739533536 -70.07300044486648
rradius 105.1229845193927
rwrist -12.064302424192295
rhand -59.66299102655903 27.357293532026524
rfingers 7.125020000000003
rthumb -31.83099133627698 0.11763866124974953
29
root -7.27403152887816 17.65340965714106 5.274044598803578 -1.116932846980049 33.3447977598093 -10.181510929709944
lfemur 1.0418417524472545 17.852188608577517 10.264985467525417
ltibia 40.1629873683532
lfoot 15.897700611338555 13.788686827748545
ltoes -30.002091440418443
rfemur -26.169191431108814 15.37178365679309 29.099787230173035
rtibia 34.405091012568526
rfoot 0.21095716306858314 32.06568332867246
rtoes 38.660286369042694
lowerback 2.3300730888457535 -10.491686894412675 -18.9708861765984
upperback -1.0697248759332485 -14.334186845687048 -4.506767191129113
thorax 0.891703865199561 -6.975276927381396 5.133784265362792
lowerneck -3.5300525215092815 22.574285544815968 1.1700649990562462
upperneck 11.638402827089848 32.433987478793654 -12.943187803689629
head 6.51404311953265 14.944085672957156 -1.486955875484968
lclavicle -7.014205041015191e-15 -5.153635956811142e-15
lhumerus 105.18898744376145 -46.35339356284079 45.54691001452221
lradius 34.660902421022335
lwrist 4.159240284510123
lhand -12.929299296044169 4.714478011817823
lfingers 7.125020000000003
lthumb -166.83899932005428 214.27900892362356
rclavicle -7.014205041015191e-15 -5.153635956811142e-15
rhumerus 23.13040594004233 -19.716286974753103 -66.82710226559838
rradius 106.36498431751379
rwrist -9.70217336725821
rhand -60.256790989603715 27.923293118803475
rfingers 7.125020000000003
rthumb -32.396190843041296 0.7975866251413084
30
root -7.281611406762213 17.654609589856882 5.328634369994877 -0.5046040204521347 32.667998069088874 -9.60264487106727
lfemur 1.1595406103909234 17.702988920089194 9.880796007733203
ltibia 40.037387463435245
lfoot 16.734200190870915 13.966786764035337
ltoes -28.616988727745426
rfemur -26.198091456434174 16.76328209652348 28.65558770858162
rtibia 34.11129108632941
rfoot 0.34668479042875155 31.406284259253418
rtoes 39.02458580304183
lowerback 2.2836230537771494 -10.560286791449114 -18.952985807398644
upperback -1.2873844817758786 -14.444686123209008 -4.597967020491562
thorax 0.6744235209103011 -6.99960684091015 5.0410543335873825
lowerneck -3.999021988801359 22.728085427616502 1.064025294553622
upperneck 11.677002498523393 32.626186446655794 -12.662288312079358
head 6.548712949779024 15.022986452716037 -1.3301272323275437
lclavicle -7.014204692572039e-15 -5.15363597478099e-15
lhumerus 107.93098618699838 -44.58089264306976 44.407611173455784
lradius 35.96860162384017
lwrist 4.467940071323369
lhand -14.800597843561372 2.9059889842097064
lfingers 7.125020000000003
lthumb -168.6429978912417 212.57801228403406
rclavicle -7.014204692572039e-15 -5.15363597478099e-15
rhumerus 25.33270604010911 -20.84898714606929 -64.24890352346353
rradius 106.92898474888494
rwrist -6.161095077643045
rhand -61.499990856716465 30.36789118627344
rfingers 7.125020000000003
rthumb -33.57859044008197 3.4915605063919326
31
root -7.277011481480921 17.66360909053154 5.372664314595852 0.026276144951935976 32.02269835011818 -9.02710708777029
lfemur 1.489111311063617 17.499390091019684 9.497155819551596
ltibia 39.774088178088384
lfoot 17.7502996391747 12.999785540369569
ltoes -28.75869173704763
rfemur -26.239591479390207 17.222381083410742 28.2594876510022
rtibia 34.07639106236534
rfoot 0.09907149289838912 31.674785131600373
rtoes 38.62338652752997
lowerback 2.204733171964864 -10.560486726758615 -18.93578606073437
upperback -1.4196142814199093 -14.44638596545049 -4.691746549257344
thorax 0.5443078675215967 -6.982636395456936 4.940914519183886
lowerneck -3.942461983338397 22.925985126523127 0.7794172740573357
upperneck 10.942903315278185 32.790384992985395 -12.858787863271974
head 6.305473636376888 15.139685665887834 -1.3914767167267676
lclavicle -7.014204952320847e-15 -5.153635795079697e-15
lhumerus 109.77898618234286 -43.371192801743504 44.16441077984057
lradius 37.053901019250894
lwrist 3.6853814040902755
lhand -17.257695936513855 1.4910193256084128
lfingers 7.125020000000003
lthumb -171.01299597971672 211.28000695028413
rclavicle -7.014204952320847e-15 -5.153635795079697e-15
rhumerus 27.188004743516718 -22.379185389043016 -62.06650484835656
rradius 107.28598193298001
rwrist -2.3588473104839025
rhand -62.559188759653 29.92229198209806
rfingers 7.125020000000003
rthumb -34.584690726466604 3.270300675615971
32
root -7.280571435745013 17.693407414335063 5.414564022718791 0.6399200529853175 31.50379862363571 -8.398645965713555
lfemur 1.7981512503317596 17.244389543926477 9.02437613788026
ltibia 39.1299887805959
lfoot 18.714899167602624 12.719586404754633
ltoes -28.57618854836961
rfemur -26.538791361608638 17.82078112779554 27.62238885725799
rtibia 34.396590825521756
rfoot -0.2004018414062294 31.741784689951125
rtoes 38.76648701101041
lowerback 2.135103198303676 -10.542886607449478 -18.94808604892293
upperback -1.5502239821072772 -14.425287269367201 -4.89687637554108
thorax 0.38308612229087347 -6.949636947468623 4.746734996302671
lowerneck -4.052872101421373 22.971285268658406 1.289484462105946
upperneck 10.522903652468798 32.88238555589365 -13.613787271429473
head 6.4054634005518265 15.168886386183212 -1.5966449289353475
lclavicle -7.014204318789613e-15 -5.153636028691608e-15
lhumerus 111.48898548367092 -42.34499347096298 44.01530970858519
lradius 38.03500046467024
lwrist 4.115991202854083
lhand -19.147494449563457 0.46443747838330296
lfingers 7.125020000000003
lthumb -172.83699434601033 210.32300790250756
rclavicle -7.014204318789613e-15 -5.153636028691608e-15
rhumerus 28.392705161657126 -23.63938653656499 -60.00070631762473
rradius 107.93598190657613
rwrist 1.0168016566420413
rhand -63.533889932688545 26.365594177625823
rfingers 7.125020000000003
rthumb -35.50918920984145 -0.0699825237251428
